{
	"patcher" : 	{
		"fileversion" : 1,
		"appversion" : 		{
			"major" : 8,
			"minor" : 5,
			"revision" : 6,
			"architecture" : "x64",
			"modernui" : 1
		}
,
		"classnamespace" : "box",
		"rect" : [ -466.0, -1026.0, 1163.0, 881.0 ],
		"bglocked" : 0,
		"openinpresentation" : 0,
		"default_fontsize" : 12.0,
		"default_fontface" : 0,
		"default_fontname" : "Arial",
		"gridonopen" : 1,
		"gridsize" : [ 15.0, 15.0 ],
		"gridsnaponopen" : 1,
		"objectsnaponopen" : 1,
		"statusbarvisible" : 2,
		"toolbarvisible" : 1,
		"lefttoolbarpinned" : 0,
		"toptoolbarpinned" : 0,
		"righttoolbarpinned" : 0,
		"bottomtoolbarpinned" : 0,
		"toolbars_unpinned_last_save" : 0,
		"tallnewobj" : 0,
		"boxanimatetime" : 200,
		"enablehscroll" : 1,
		"enablevscroll" : 1,
		"devicewidth" : 0.0,
		"description" : "",
		"digest" : "",
		"tags" : "",
		"style" : "",
		"subpatcher_template" : "",
		"assistshowspatchername" : 0,
		"boxes" : [ 			{
				"box" : 				{
					"id" : "obj-6",
					"maxclass" : "newobj",
					"numinlets" : 1,
					"numoutlets" : 1,
					"outlettype" : [ "" ],
					"patching_rect" : [ 389.5, 64.0, 70.0, 22.0 ],
					"text" : "loadmess 2"
				}

			}
, 			{
				"box" : 				{
					"id" : "obj-7",
					"maxclass" : "newobj",
					"numinlets" : 1,
					"numoutlets" : 1,
					"outlettype" : [ "" ],
					"patching_rect" : [ 224.5, 64.0, 70.0, 22.0 ],
					"text" : "loadmess 1"
				}

			}
, 			{
				"box" : 				{
					"activebgoncolor" : [ 0.427450980392157, 0.843137254901961, 1.0, 1.0 ],
					"id" : "obj-4",
					"maxclass" : "live.tab",
					"num_lines_patching" : 1,
					"num_lines_presentation" : 0,
					"numinlets" : 1,
					"numoutlets" : 3,
					"outlettype" : [ "", "", "float" ],
					"parameter_enable" : 1,
					"patching_rect" : [ 386.0, 168.0, 100.0, 20.0 ],
					"saved_attribute_attributes" : 					{
						"activebgoncolor" : 						{
							"expression" : "themecolor.live_numbox_triangle"
						}
,
						"valueof" : 						{
							"parameter_enum" : [ "-0.", "-3.", "-6." ],
							"parameter_longname" : "live.tab",
							"parameter_mmax" : 2,
							"parameter_shortname" : "live.tab",
							"parameter_type" : 2,
							"parameter_unitstyle" : 9
						}

					}
,
					"varname" : "live.tab"
				}

			}
, 			{
				"box" : 				{
					"id" : "obj-12",
					"maxclass" : "live.text",
					"numinlets" : 1,
					"numoutlets" : 2,
					"outlettype" : [ "", "" ],
					"parameter_enable" : 1,
					"patching_rect" : [ 224.5, 155.0, 53.5, 38.0 ],
					"presentation" : 1,
					"presentation_rect" : [ 15.0, 22.0, 48.0, 46.0 ],
					"saved_attribute_attributes" : 					{
						"valueof" : 						{
							"parameter_enum" : [ "val1", "val2" ],
							"parameter_longname" : "live.text",
							"parameter_mmax" : 1,
							"parameter_shortname" : "live.text",
							"parameter_type" : 2
						}

					}
,
					"text" : "Bypass",
					"texton" : "MonoBass",
					"varname" : "live.text"
				}

			}
, 			{
				"box" : 				{
					"basictuning" : 440,
					"data" : 					{
						"clips" : [ 							{
								"absolutepath" : "vs_piano_loop.wav",
								"filename" : "vs_piano_loop.wav",
								"filekind" : "audiofile",
								"id" : "u630002364",
								"loop" : 1,
								"content_state" : 								{
									"loop" : 1
								}

							}
 ]
					}
,
					"followglobaltempo" : 0,
					"formantcorrection" : 0,
					"id" : "obj-5",
					"maxclass" : "playlist~",
					"mode" : "basic",
					"numinlets" : 1,
					"numoutlets" : 5,
					"originallength" : [ 0.0, "ticks" ],
					"originaltempo" : 120.0,
					"outlettype" : [ "signal", "signal", "signal", "", "dictionary" ],
					"parameter_enable" : 0,
					"patching_rect" : [ 34.0, 124.0, 150.0, 30.0 ],
					"pitchcorrection" : 0,
					"quality" : "basic",
					"timestretch" : [ 0 ]
				}

			}
, 			{
				"box" : 				{
					"id" : "obj-3",
					"maxclass" : "ezdac~",
					"numinlets" : 2,
					"numoutlets" : 0,
					"patching_rect" : [ 39.0, 550.0, 45.0, 45.0 ]
				}

			}
, 			{
				"box" : 				{
					"id" : "obj-2",
					"lastchannelcount" : 0,
					"maxclass" : "live.gain~",
					"numinlets" : 2,
					"numoutlets" : 5,
					"outlettype" : [ "signal", "signal", "", "float", "list" ],
					"parameter_enable" : 1,
					"patching_rect" : [ 39.0, 373.0, 48.0, 136.0 ],
					"saved_attribute_attributes" : 					{
						"valueof" : 						{
							"parameter_longname" : "live.gain~",
							"parameter_mmax" : 6.0,
							"parameter_mmin" : -70.0,
							"parameter_shortname" : "live.gain~",
							"parameter_type" : 0,
							"parameter_unitstyle" : 4
						}

					}
,
					"varname" : "live.gain~"
				}

			}
, 			{
				"box" : 				{
					"autosave" : 1,
					"id" : "obj-1",
					"inletInfo" : 					{
						"IOInfo" : [ 							{
								"type" : "signal",
								"index" : 1,
								"tag" : "in1",
								"comment" : ""
							}
, 							{
								"type" : "signal",
								"index" : 2,
								"tag" : "in2",
								"comment" : ""
							}
, 							{
								"type" : "event",
								"index" : 3,
								"tag" : "in3",
								"comment" : "(int) On/Off, 0 - 1. 0"
							}
, 							{
								"type" : "event",
								"index" : 4,
								"tag" : "in4",
								"comment" : "Bass Mix dB, (int) 0 = 0.0, 1 = -3.0, 2 = -6 dB 2"
							}
 ]
					}
,
					"maxclass" : "newobj",
					"numinlets" : 4,
					"numoutlets" : 3,
					"outletInfo" : 					{
						"IOInfo" : [ 							{
								"type" : "signal",
								"index" : 1,
								"tag" : "out1",
								"comment" : ""
							}
, 							{
								"type" : "signal",
								"index" : 2,
								"tag" : "out2",
								"comment" : ""
							}
 ]
					}
,
					"outlettype" : [ "signal", "signal", "list" ],
					"patcher" : 					{
						"fileversion" : 1,
						"appversion" : 						{
							"major" : 8,
							"minor" : 5,
							"revision" : 6,
							"architecture" : "x64",
							"modernui" : 1
						}
,
						"classnamespace" : "rnbo",
						"rect" : [ -206.0, -659.0, 786.0, 589.0 ],
						"bglocked" : 0,
						"openinpresentation" : 0,
						"default_fontsize" : 12.0,
						"default_fontface" : 0,
						"default_fontname" : "Lato",
						"gridonopen" : 1,
						"gridsize" : [ 15.0, 15.0 ],
						"gridsnaponopen" : 1,
						"objectsnaponopen" : 1,
						"statusbarvisible" : 2,
						"toolbarvisible" : 1,
						"lefttoolbarpinned" : 0,
						"toptoolbarpinned" : 0,
						"righttoolbarpinned" : 0,
						"bottomtoolbarpinned" : 0,
						"toolbars_unpinned_last_save" : 0,
						"tallnewobj" : 0,
						"boxanimatetime" : 200,
						"enablehscroll" : 1,
						"enablevscroll" : 1,
						"devicewidth" : 0.0,
						"description" : "",
						"digest" : "",
						"tags" : "",
						"style" : "",
						"subpatcher_template" : "",
						"assistshowspatchername" : 0,
						"title" : "untitled",
						"boxes" : [ 							{
								"box" : 								{
									"genpatcher" : 									{
										"patcher" : 										{
											"fileversion" : 1,
											"appversion" : 											{
												"major" : 8,
												"minor" : 5,
												"revision" : 6,
												"architecture" : "x64",
												"modernui" : 1
											}
,
											"classnamespace" : "dsp.gen",
											"rect" : [ 84.0, 129.0, 1133.0, 699.0 ],
											"bglocked" : 0,
											"openinpresentation" : 0,
											"default_fontsize" : 12.0,
											"default_fontface" : 0,
											"default_fontname" : "Arial",
											"gridonopen" : 1,
											"gridsize" : [ 15.0, 15.0 ],
											"gridsnaponopen" : 1,
											"objectsnaponopen" : 1,
											"statusbarvisible" : 2,
											"toolbarvisible" : 1,
											"lefttoolbarpinned" : 0,
											"toptoolbarpinned" : 0,
											"righttoolbarpinned" : 0,
											"bottomtoolbarpinned" : 0,
											"toolbars_unpinned_last_save" : 0,
											"tallnewobj" : 0,
											"boxanimatetime" : 200,
											"enablehscroll" : 1,
											"enablevscroll" : 1,
											"devicewidth" : 0.0,
											"description" : "",
											"digest" : "",
											"tags" : "",
											"style" : "",
											"subpatcher_template" : "",
											"assistshowspatchername" : 0,
											"boxes" : [ 												{
													"box" : 													{
														"maxclass" : "newobj",
														"text" : "-6",
														"numinlets" : 0,
														"patching_rect" : [ 940.0, 231.0, 19.0, 22.0 ],
														"numoutlets" : 1,
														"outlettype" : [ "" ],
														"id" : "obj-23"
													}

												}
, 												{
													"box" : 													{
														"maxclass" : "newobj",
														"text" : "slide",
														"numinlets" : 3,
														"patching_rect" : [ 876.0, 232.0, 40.0, 22.0 ],
														"numoutlets" : 1,
														"outlettype" : [ "" ],
														"id" : "obj-25"
													}

												}
, 												{
													"box" : 													{
														"maxclass" : "newobj",
														"text" : "*",
														"numinlets" : 2,
														"patching_rect" : [ 876.0, 282.0, 29.5, 22.0 ],
														"numoutlets" : 1,
														"outlettype" : [ "" ],
														"id" : "obj-26"
													}

												}
, 												{
													"box" : 													{
														"maxclass" : "newobj",
														"text" : "== 2",
														"numinlets" : 1,
														"patching_rect" : [ 876.0, 174.0, 33.0, 22.0 ],
														"numoutlets" : 1,
														"outlettype" : [ "" ],
														"id" : "obj-27"
													}

												}
, 												{
													"box" : 													{
														"maxclass" : "newobj",
														"text" : "-3",
														"numinlets" : 0,
														"patching_rect" : [ 790.0, 231.0, 19.0, 22.0 ],
														"numoutlets" : 1,
														"outlettype" : [ "" ],
														"id" : "obj-18"
													}

												}
, 												{
													"box" : 													{
														"maxclass" : "newobj",
														"text" : "slide",
														"numinlets" : 3,
														"patching_rect" : [ 726.0, 232.0, 40.0, 22.0 ],
														"numoutlets" : 1,
														"outlettype" : [ "" ],
														"id" : "obj-20"
													}

												}
, 												{
													"box" : 													{
														"maxclass" : "newobj",
														"text" : "*",
														"numinlets" : 2,
														"patching_rect" : [ 726.0, 282.0, 29.5, 22.0 ],
														"numoutlets" : 1,
														"outlettype" : [ "" ],
														"id" : "obj-21"
													}

												}
, 												{
													"box" : 													{
														"maxclass" : "newobj",
														"text" : "== 1",
														"numinlets" : 1,
														"patching_rect" : [ 726.0, 174.0, 33.0, 22.0 ],
														"numoutlets" : 1,
														"outlettype" : [ "" ],
														"id" : "obj-22"
													}

												}
, 												{
													"box" : 													{
														"maxclass" : "newobj",
														"text" : "0",
														"numinlets" : 0,
														"patching_rect" : [ 651.0, 231.0, 19.0, 22.0 ],
														"numoutlets" : 1,
														"outlettype" : [ "" ],
														"id" : "obj-17"
													}

												}
, 												{
													"box" : 													{
														"maxclass" : "newobj",
														"text" : "25",
														"numinlets" : 0,
														"patching_rect" : [ 919.0, 53.0, 22.0, 22.0 ],
														"numoutlets" : 1,
														"outlettype" : [ "" ],
														"id" : "obj-16"
													}

												}
, 												{
													"box" : 													{
														"maxclass" : "newobj",
														"text" : "dbtoa",
														"numinlets" : 1,
														"patching_rect" : [ 587.0, 361.0, 39.0, 22.0 ],
														"numoutlets" : 1,
														"outlettype" : [ "" ],
														"id" : "obj-15"
													}

												}
, 												{
													"box" : 													{
														"maxclass" : "newobj",
														"text" : "slide",
														"numinlets" : 3,
														"patching_rect" : [ 587.0, 232.0, 40.0, 22.0 ],
														"numoutlets" : 1,
														"outlettype" : [ "" ],
														"id" : "obj-14"
													}

												}
, 												{
													"box" : 													{
														"maxclass" : "newobj",
														"text" : "*",
														"numinlets" : 2,
														"patching_rect" : [ 587.0, 282.0, 29.5, 22.0 ],
														"numoutlets" : 1,
														"outlettype" : [ "" ],
														"id" : "obj-13"
													}

												}
, 												{
													"box" : 													{
														"maxclass" : "newobj",
														"text" : "== 0",
														"numinlets" : 1,
														"patching_rect" : [ 587.0, 170.0, 33.0, 22.0 ],
														"numoutlets" : 1,
														"outlettype" : [ "" ],
														"id" : "obj-12"
													}

												}
, 												{
													"box" : 													{
														"maxclass" : "newobj",
														"text" : "in 3 @comment \"Bass dB Mix, 0 = -0 dB, 1 = -3 db,  2 = -6 dB\" @default 2",
														"numinlets" : 0,
														"patching_rect" : [ 587.0, 19.0, 402.0, 22.0 ],
														"numoutlets" : 1,
														"outlettype" : [ "" ],
														"id" : "obj-11"
													}

												}
, 												{
													"box" : 													{
														"maxclass" : "newobj",
														"text" : "out 2",
														"numinlets" : 1,
														"patching_rect" : [ 311.0, 500.0, 35.0, 22.0 ],
														"numoutlets" : 0,
														"id" : "obj-6"
													}

												}
, 												{
													"box" : 													{
														"maxclass" : "newobj",
														"text" : "*",
														"numinlets" : 2,
														"patching_rect" : [ 176.0, 362.0, 29.5, 22.0 ],
														"numoutlets" : 1,
														"outlettype" : [ "" ],
														"id" : "obj-5"
													}

												}
, 												{
													"box" : 													{
														"maxclass" : "newobj",
														"text" : "in 1 @comment \"Left Low Freq In\"",
														"numinlets" : 0,
														"patching_rect" : [ 50.0, 14.0, 191.0, 22.0 ],
														"numoutlets" : 1,
														"outlettype" : [ "" ],
														"id" : "obj-1"
													}

												}
, 												{
													"box" : 													{
														"maxclass" : "newobj",
														"text" : "in 2 @comment \"Right Low Freq In\"",
														"numinlets" : 0,
														"patching_rect" : [ 305.0, 14.0, 199.0, 22.0 ],
														"numoutlets" : 1,
														"outlettype" : [ "" ],
														"id" : "obj-2"
													}

												}
, 												{
													"box" : 													{
														"maxclass" : "newobj",
														"text" : "+",
														"numinlets" : 2,
														"patching_rect" : [ 176.0, 149.0, 29.5, 22.0 ],
														"numoutlets" : 1,
														"outlettype" : [ "" ],
														"id" : "obj-3"
													}

												}
, 												{
													"box" : 													{
														"maxclass" : "newobj",
														"text" : "out 1",
														"numinlets" : 1,
														"patching_rect" : [ 70.0, 488.0, 35.0, 22.0 ],
														"numoutlets" : 0,
														"id" : "obj-4"
													}

												}
 ],
											"lines" : [ 												{
													"patchline" : 													{
														"source" : [ "obj-5", 0 ],
														"destination" : [ "obj-6", 0 ],
														"order" : 0
													}

												}
, 												{
													"patchline" : 													{
														"source" : [ "obj-5", 0 ],
														"destination" : [ "obj-4", 0 ],
														"order" : 1
													}

												}
, 												{
													"patchline" : 													{
														"source" : [ "obj-3", 0 ],
														"destination" : [ "obj-5", 0 ]
													}

												}
, 												{
													"patchline" : 													{
														"source" : [ "obj-27", 0 ],
														"destination" : [ "obj-25", 0 ]
													}

												}
, 												{
													"patchline" : 													{
														"source" : [ "obj-26", 0 ],
														"destination" : [ "obj-15", 0 ]
													}

												}
, 												{
													"patchline" : 													{
														"source" : [ "obj-25", 0 ],
														"destination" : [ "obj-26", 0 ]
													}

												}
, 												{
													"patchline" : 													{
														"source" : [ "obj-23", 0 ],
														"destination" : [ "obj-26", 1 ]
													}

												}
, 												{
													"patchline" : 													{
														"source" : [ "obj-22", 0 ],
														"destination" : [ "obj-20", 0 ]
													}

												}
, 												{
													"patchline" : 													{
														"source" : [ "obj-21", 0 ],
														"destination" : [ "obj-15", 0 ]
													}

												}
, 												{
													"patchline" : 													{
														"source" : [ "obj-20", 0 ],
														"destination" : [ "obj-21", 0 ]
													}

												}
, 												{
													"patchline" : 													{
														"source" : [ "obj-2", 0 ],
														"destination" : [ "obj-3", 1 ]
													}

												}
, 												{
													"patchline" : 													{
														"source" : [ "obj-18", 0 ],
														"destination" : [ "obj-21", 1 ]
													}

												}
, 												{
													"patchline" : 													{
														"source" : [ "obj-17", 0 ],
														"destination" : [ "obj-13", 1 ]
													}

												}
, 												{
													"patchline" : 													{
														"source" : [ "obj-16", 0 ],
														"destination" : [ "obj-25", 1 ],
														"midpoints" : [ 928.5, 212.0, 896.0, 212.0 ],
														"order" : 1
													}

												}
, 												{
													"patchline" : 													{
														"source" : [ "obj-16", 0 ],
														"destination" : [ "obj-25", 2 ],
														"midpoints" : [ 928.5, 212.0, 906.5, 212.0 ],
														"order" : 0
													}

												}
, 												{
													"patchline" : 													{
														"source" : [ "obj-16", 0 ],
														"destination" : [ "obj-20", 1 ],
														"midpoints" : [ 928.5, 214.0, 746.0, 214.0 ],
														"order" : 3
													}

												}
, 												{
													"patchline" : 													{
														"source" : [ "obj-16", 0 ],
														"destination" : [ "obj-20", 2 ],
														"midpoints" : [ 928.5, 212.0, 756.5, 212.0 ],
														"order" : 2
													}

												}
, 												{
													"patchline" : 													{
														"source" : [ "obj-16", 0 ],
														"destination" : [ "obj-14", 1 ],
														"midpoints" : [ 928.5, 212.0, 607.0, 212.0 ],
														"order" : 5
													}

												}
, 												{
													"patchline" : 													{
														"source" : [ "obj-16", 0 ],
														"destination" : [ "obj-14", 2 ],
														"midpoints" : [ 928.5, 212.0, 617.5, 212.0 ],
														"order" : 4
													}

												}
, 												{
													"patchline" : 													{
														"source" : [ "obj-15", 0 ],
														"destination" : [ "obj-5", 1 ]
													}

												}
, 												{
													"patchline" : 													{
														"source" : [ "obj-14", 0 ],
														"destination" : [ "obj-13", 0 ]
													}

												}
, 												{
													"patchline" : 													{
														"source" : [ "obj-13", 0 ],
														"destination" : [ "obj-15", 0 ]
													}

												}
, 												{
													"patchline" : 													{
														"source" : [ "obj-12", 0 ],
														"destination" : [ "obj-14", 0 ]
													}

												}
, 												{
													"patchline" : 													{
														"source" : [ "obj-1", 0 ],
														"destination" : [ "obj-3", 0 ]
													}

												}
, 												{
													"patchline" : 													{
														"source" : [ "obj-11", 0 ],
														"destination" : [ "obj-12", 0 ],
														"order" : 2
													}

												}
, 												{
													"patchline" : 													{
														"source" : [ "obj-11", 0 ],
														"destination" : [ "obj-22", 0 ],
														"order" : 1
													}

												}
, 												{
													"patchline" : 													{
														"source" : [ "obj-11", 0 ],
														"destination" : [ "obj-27", 0 ],
														"order" : 0
													}

												}
 ]
										}

									}
,
									"id" : "obj-3",
									"maxclass" : "newobj",
									"numinlets" : 3,
									"numoutlets" : 2,
									"outlettype" : [ "signal", "signal" ],
									"patching_rect" : [ 150.5, 304.0, 103.0, 23.0 ],
									"rnbo_classname" : "gen~",
									"rnbo_extra_attributes" : 									{
										"exposeparams" : 0
									}
,
									"rnbo_serial" : 1,
									"rnbo_uniqueid" : "Mono",
									"rnboinfo" : 									{
										"needsInstanceInfo" : 1,
										"argnames" : 										{
											"in1" : 											{
												"attrOrProp" : 1,
												"digest" : "in1",
												"isalias" : 0,
												"aliases" : [  ],
												"attachable" : 0,
												"isparam" : 0,
												"deprecated" : 0,
												"inlet" : 1,
												"type" : "number"
											}
,
											"reset" : 											{
												"attrOrProp" : 1,
												"digest" : "Reset all param and history objects to initial values",
												"isalias" : 0,
												"aliases" : [  ],
												"attachable" : 1,
												"isparam" : 0,
												"deprecated" : 0,
												"type" : "bang"
											}
,
											"expr" : 											{
												"attrOrProp" : 2,
												"digest" : "a gen expression",
												"isalias" : 0,
												"aliases" : [  ],
												"settable" : 1,
												"attachable" : 0,
												"isparam" : 0,
												"deprecated" : 0,
												"type" : "symbol",
												"doNotShowInMaxInspector" : 1
											}
,
											"file" : 											{
												"attrOrProp" : 2,
												"digest" : "gendsp file to load",
												"isalias" : 0,
												"aliases" : [  ],
												"settable" : 1,
												"attachable" : 0,
												"isparam" : 0,
												"deprecated" : 0,
												"type" : "symbol",
												"doNotShowInMaxInspector" : 1
											}
,
											"title" : 											{
												"attrOrProp" : 2,
												"digest" : "a title",
												"defaultarg" : 1,
												"isalias" : 0,
												"aliases" : [ "t" ],
												"settable" : 1,
												"attachable" : 0,
												"isparam" : 0,
												"deprecated" : 0,
												"type" : "symbol",
												"doNotShowInMaxInspector" : 1
											}
,
											"t" : 											{
												"attrOrProp" : 2,
												"digest" : "a title",
												"defaultarg" : 1,
												"isalias" : 1,
												"aliasOf" : "title",
												"aliases" : [  ],
												"settable" : 1,
												"attachable" : 0,
												"isparam" : 0,
												"deprecated" : 0,
												"type" : "symbol"
											}
,
											"exposeparams" : 											{
												"attrOrProp" : 2,
												"digest" : "Expose gen params as RNBO params.",
												"isalias" : 0,
												"aliases" : [  ],
												"settable" : 1,
												"attachable" : 0,
												"isparam" : 0,
												"deprecated" : 0,
												"type" : "bool",
												"defaultValue" : "false"
											}

										}
,
										"inputs" : [ 											{
												"name" : "in1",
												"type" : "auto",
												"digest" : "in1",
												"hot" : 1,
												"docked" : 0
											}
, 											{
												"name" : "in2",
												"type" : "auto"
											}
, 											{
												"name" : "in3",
												"type" : "auto"
											}
 ],
										"outputs" : [ 											{
												"name" : "out1",
												"type" : "signal"
											}
, 											{
												"name" : "out2",
												"type" : "signal"
											}
 ],
										"helpname" : "gen~",
										"aliasOf" : "gen~",
										"classname" : "gen~",
										"operator" : 0,
										"versionId" : 1405647718,
										"changesPatcherIO" : 0
									}
,
									"text" : "gen~ @title Mono",
									"varname" : "Mono"
								}

							}
, 							{
								"box" : 								{
									"id" : "obj-10",
									"maxclass" : "newobj",
									"numinlets" : 0,
									"numoutlets" : 1,
									"outlettype" : [ "" ],
									"patching_rect" : [ 373.0, 164.0, 345.0, 23.0 ],
									"rnbo_classname" : "in",
									"rnbo_extra_attributes" : 									{
										"meta" : ""
									}
,
									"rnbo_serial" : 1,
									"rnbo_uniqueid" : "in_obj-10",
									"rnboinfo" : 									{
										"needsInstanceInfo" : 1,
										"argnames" : 										{
											"index" : 											{
												"attrOrProp" : 2,
												"digest" : "inlet number",
												"defaultarg" : 1,
												"isalias" : 0,
												"aliases" : [  ],
												"settable" : 1,
												"attachable" : 0,
												"isparam" : 0,
												"deprecated" : 0,
												"type" : "number",
												"mandatory" : 1
											}
,
											"comment" : 											{
												"attrOrProp" : 2,
												"digest" : "mouse over comment",
												"isalias" : 0,
												"aliases" : [  ],
												"settable" : 1,
												"attachable" : 0,
												"isparam" : 0,
												"deprecated" : 0,
												"type" : "symbol"
											}
,
											"meta" : 											{
												"attrOrProp" : 2,
												"digest" : "A JSON formatted string containing metadata for use by the exported code",
												"isalias" : 0,
												"aliases" : [  ],
												"settable" : 1,
												"attachable" : 0,
												"isparam" : 0,
												"deprecated" : 0,
												"type" : "symbol",
												"defaultValue" : "",
												"label" : "Metadata",
												"displayorder" : 3
											}

										}
,
										"inputs" : [  ],
										"outputs" : [ 											{
												"name" : "out1",
												"type" : [ "bang", "number", "list" ],
												"digest" : "value from inlet with index 4",
												"displayName" : "Bass Mix dB, (int) 0 = 0.0, 1 = -3.0, 2 = -6 dB 2",
												"docked" : 0
											}
 ],
										"helpname" : "in",
										"aliasOf" : "in",
										"classname" : "in",
										"operator" : 0,
										"versionId" : 1219109108,
										"changesPatcherIO" : 1
									}
,
									"text" : "in 4 @comment \"Bass Mix dB, (int) 0 = 0.0, 1 = -3.0, 2 = -6 dB\" 2"
								}

							}
, 							{
								"box" : 								{
									"id" : "obj-7",
									"maxclass" : "newobj",
									"numinlets" : 0,
									"numoutlets" : 1,
									"outlettype" : [ "" ],
									"patching_rect" : [ 134.0, 51.0, 207.0, 23.0 ],
									"rnbo_classname" : "in",
									"rnbo_extra_attributes" : 									{
										"meta" : ""
									}
,
									"rnbo_serial" : 2,
									"rnbo_uniqueid" : "On/Off",
									"rnboinfo" : 									{
										"needsInstanceInfo" : 1,
										"argnames" : 										{
											"index" : 											{
												"attrOrProp" : 2,
												"digest" : "inlet number",
												"defaultarg" : 1,
												"isalias" : 0,
												"aliases" : [  ],
												"settable" : 1,
												"attachable" : 0,
												"isparam" : 0,
												"deprecated" : 0,
												"type" : "number",
												"mandatory" : 1
											}
,
											"comment" : 											{
												"attrOrProp" : 2,
												"digest" : "mouse over comment",
												"isalias" : 0,
												"aliases" : [  ],
												"settable" : 1,
												"attachable" : 0,
												"isparam" : 0,
												"deprecated" : 0,
												"type" : "symbol"
											}
,
											"meta" : 											{
												"attrOrProp" : 2,
												"digest" : "A JSON formatted string containing metadata for use by the exported code",
												"isalias" : 0,
												"aliases" : [  ],
												"settable" : 1,
												"attachable" : 0,
												"isparam" : 0,
												"deprecated" : 0,
												"type" : "symbol",
												"defaultValue" : "",
												"label" : "Metadata",
												"displayorder" : 3
											}

										}
,
										"inputs" : [  ],
										"outputs" : [ 											{
												"name" : "out1",
												"type" : [ "bang", "number", "list" ],
												"digest" : "value from inlet with index 3",
												"displayName" : "(int) On/Off, 0 - 1. 0",
												"docked" : 0
											}
 ],
										"helpname" : "in",
										"aliasOf" : "in",
										"classname" : "in",
										"operator" : 0,
										"versionId" : 1219109108,
										"changesPatcherIO" : 1
									}
,
									"text" : "in 3 @comment \"(int) On/Off, 0 - 1.\" 0",
									"varname" : "On/Off"
								}

							}
, 							{
								"box" : 								{
									"id" : "obj-5",
									"maxclass" : "newobj",
									"numinlets" : 1,
									"numoutlets" : 0,
									"patching_rect" : [ 104.0, 555.0, 43.0, 23.0 ],
									"rnbo_classname" : "out~",
									"rnbo_extra_attributes" : 									{
										"meta" : "",
										"comment" : ""
									}
,
									"rnbo_serial" : 1,
									"rnbo_uniqueid" : "out~_obj-5",
									"rnboinfo" : 									{
										"needsInstanceInfo" : 1,
										"argnames" : 										{
											"in1" : 											{
												"attrOrProp" : 1,
												"digest" : "signal sent to outlet with index 2",
												"isalias" : 0,
												"aliases" : [  ],
												"settable" : 0,
												"attachable" : 0,
												"isparam" : 0,
												"deprecated" : 0,
												"inlet" : 1,
												"type" : "signal"
											}
,
											"index" : 											{
												"attrOrProp" : 2,
												"digest" : "outlet number",
												"defaultarg" : 1,
												"isalias" : 0,
												"aliases" : [  ],
												"settable" : 1,
												"attachable" : 0,
												"isparam" : 0,
												"deprecated" : 0,
												"type" : "number",
												"mandatory" : 1
											}
,
											"comment" : 											{
												"attrOrProp" : 2,
												"digest" : "mouse over comment",
												"isalias" : 0,
												"aliases" : [  ],
												"settable" : 1,
												"attachable" : 0,
												"isparam" : 0,
												"deprecated" : 0,
												"type" : "symbol"
											}
,
											"meta" : 											{
												"attrOrProp" : 2,
												"digest" : "A JSON formatted string containing metadata for use by the exported code",
												"isalias" : 0,
												"aliases" : [  ],
												"settable" : 1,
												"attachable" : 0,
												"isparam" : 0,
												"deprecated" : 0,
												"type" : "symbol",
												"defaultValue" : "",
												"label" : "Metadata",
												"displayorder" : 3
											}

										}
,
										"inputs" : [ 											{
												"name" : "in1",
												"type" : "signal",
												"digest" : "signal sent to outlet with index 2",
												"displayName" : "",
												"hot" : 1,
												"docked" : 0
											}
 ],
										"outputs" : [  ],
										"helpname" : "out~",
										"aliasOf" : "out~",
										"classname" : "out~",
										"operator" : 0,
										"versionId" : 374499139,
										"changesPatcherIO" : 1
									}
,
									"text" : "out~ 2"
								}

							}
, 							{
								"box" : 								{
									"id" : "obj-4",
									"maxclass" : "newobj",
									"numinlets" : 1,
									"numoutlets" : 0,
									"patching_rect" : [ 44.0, 555.0, 43.0, 23.0 ],
									"rnbo_classname" : "out~",
									"rnbo_extra_attributes" : 									{
										"meta" : "",
										"comment" : ""
									}
,
									"rnbo_serial" : 2,
									"rnbo_uniqueid" : "out~_obj-4",
									"rnboinfo" : 									{
										"needsInstanceInfo" : 1,
										"argnames" : 										{
											"in1" : 											{
												"attrOrProp" : 1,
												"digest" : "signal sent to outlet with index 1",
												"isalias" : 0,
												"aliases" : [  ],
												"settable" : 0,
												"attachable" : 0,
												"isparam" : 0,
												"deprecated" : 0,
												"inlet" : 1,
												"type" : "signal"
											}
,
											"index" : 											{
												"attrOrProp" : 2,
												"digest" : "outlet number",
												"defaultarg" : 1,
												"isalias" : 0,
												"aliases" : [  ],
												"settable" : 1,
												"attachable" : 0,
												"isparam" : 0,
												"deprecated" : 0,
												"type" : "number",
												"mandatory" : 1
											}
,
											"comment" : 											{
												"attrOrProp" : 2,
												"digest" : "mouse over comment",
												"isalias" : 0,
												"aliases" : [  ],
												"settable" : 1,
												"attachable" : 0,
												"isparam" : 0,
												"deprecated" : 0,
												"type" : "symbol"
											}
,
											"meta" : 											{
												"attrOrProp" : 2,
												"digest" : "A JSON formatted string containing metadata for use by the exported code",
												"isalias" : 0,
												"aliases" : [  ],
												"settable" : 1,
												"attachable" : 0,
												"isparam" : 0,
												"deprecated" : 0,
												"type" : "symbol",
												"defaultValue" : "",
												"label" : "Metadata",
												"displayorder" : 3
											}

										}
,
										"inputs" : [ 											{
												"name" : "in1",
												"type" : "signal",
												"digest" : "signal sent to outlet with index 1",
												"displayName" : "",
												"hot" : 1,
												"docked" : 0
											}
 ],
										"outputs" : [  ],
										"helpname" : "out~",
										"aliasOf" : "out~",
										"classname" : "out~",
										"operator" : 0,
										"versionId" : 374499139,
										"changesPatcherIO" : 1
									}
,
									"text" : "out~ 1"
								}

							}
, 							{
								"box" : 								{
									"id" : "obj-13",
									"maxclass" : "newobj",
									"numinlets" : 2,
									"numoutlets" : 1,
									"outlettype" : [ "signal" ],
									"patching_rect" : [ 82.75, 514.0, 29.5, 23.0 ],
									"rnbo_classname" : "+~",
									"rnbo_serial" : 1,
									"rnbo_uniqueid" : "+~_obj-13",
									"text" : "+~"
								}

							}
, 							{
								"box" : 								{
									"id" : "obj-12",
									"maxclass" : "newobj",
									"numinlets" : 2,
									"numoutlets" : 1,
									"outlettype" : [ "signal" ],
									"patching_rect" : [ 42.0, 514.0, 29.5, 23.0 ],
									"rnbo_classname" : "+~",
									"rnbo_serial" : 2,
									"rnbo_uniqueid" : "+~_obj-12",
									"text" : "+~"
								}

							}
, 							{
								"box" : 								{
									"genpatcher" : 									{
										"patcher" : 										{
											"fileversion" : 1,
											"appversion" : 											{
												"major" : 8,
												"minor" : 5,
												"revision" : 6,
												"architecture" : "x64",
												"modernui" : 1
											}
,
											"classnamespace" : "dsp.gen",
											"rect" : [ 59.0, 104.0, 1274.0, 656.0 ],
											"bglocked" : 0,
											"openinpresentation" : 0,
											"default_fontsize" : 12.0,
											"default_fontface" : 0,
											"default_fontname" : "Arial",
											"gridonopen" : 1,
											"gridsize" : [ 15.0, 15.0 ],
											"gridsnaponopen" : 1,
											"objectsnaponopen" : 1,
											"statusbarvisible" : 2,
											"toolbarvisible" : 1,
											"lefttoolbarpinned" : 0,
											"toptoolbarpinned" : 0,
											"righttoolbarpinned" : 0,
											"bottomtoolbarpinned" : 0,
											"toolbars_unpinned_last_save" : 0,
											"tallnewobj" : 0,
											"boxanimatetime" : 200,
											"enablehscroll" : 1,
											"enablevscroll" : 1,
											"devicewidth" : 0.0,
											"description" : "",
											"digest" : "",
											"tags" : "",
											"style" : "",
											"subpatcher_template" : "",
											"assistshowspatchername" : 0,
											"boxes" : [ 												{
													"box" : 													{
														"maxclass" : "newobj",
														"text" : "*",
														"numinlets" : 2,
														"patching_rect" : [ 771.5, 471.0, 29.5, 22.0 ],
														"numoutlets" : 1,
														"outlettype" : [ "" ],
														"id" : "obj-17"
													}

												}
, 												{
													"box" : 													{
														"maxclass" : "newobj",
														"text" : "*",
														"numinlets" : 2,
														"patching_rect" : [ 516.5, 471.0, 29.5, 22.0 ],
														"numoutlets" : 1,
														"outlettype" : [ "" ],
														"id" : "obj-19"
													}

												}
, 												{
													"box" : 													{
														"maxclass" : "newobj",
														"text" : "out 4",
														"numinlets" : 1,
														"patching_rect" : [ 771.5, 563.0, 35.0, 22.0 ],
														"numoutlets" : 0,
														"id" : "obj-15"
													}

												}
, 												{
													"box" : 													{
														"maxclass" : "newobj",
														"text" : "out 3",
														"numinlets" : 1,
														"patching_rect" : [ 516.5, 557.0, 35.0, 22.0 ],
														"numoutlets" : 0,
														"id" : "obj-16"
													}

												}
, 												{
													"box" : 													{
														"maxclass" : "newobj",
														"text" : "== 1",
														"numinlets" : 1,
														"patching_rect" : [ 650.0, 173.0, 33.0, 22.0 ],
														"numoutlets" : 1,
														"outlettype" : [ "" ],
														"id" : "obj-11"
													}

												}
, 												{
													"box" : 													{
														"maxclass" : "newobj",
														"text" : "50",
														"numinlets" : 0,
														"patching_rect" : [ 707.0, 166.0, 22.0, 22.0 ],
														"numoutlets" : 1,
														"outlettype" : [ "" ],
														"id" : "obj-12"
													}

												}
, 												{
													"box" : 													{
														"maxclass" : "newobj",
														"text" : "mstosamps",
														"numinlets" : 1,
														"patching_rect" : [ 713.0, 209.0, 70.0, 22.0 ],
														"numoutlets" : 1,
														"outlettype" : [ "" ],
														"id" : "obj-13"
													}

												}
, 												{
													"box" : 													{
														"maxclass" : "newobj",
														"text" : "slide",
														"numinlets" : 3,
														"patching_rect" : [ 650.0, 287.0, 40.0, 22.0 ],
														"numoutlets" : 1,
														"outlettype" : [ "" ],
														"id" : "obj-14"
													}

												}
, 												{
													"box" : 													{
														"maxclass" : "newobj",
														"text" : "*",
														"numinlets" : 2,
														"patching_rect" : [ 303.5, 457.0, 29.5, 22.0 ],
														"numoutlets" : 1,
														"outlettype" : [ "" ],
														"id" : "obj-10"
													}

												}
, 												{
													"box" : 													{
														"maxclass" : "newobj",
														"text" : "*",
														"numinlets" : 2,
														"patching_rect" : [ 48.5, 457.0, 29.5, 22.0 ],
														"numoutlets" : 1,
														"outlettype" : [ "" ],
														"id" : "obj-9"
													}

												}
, 												{
													"box" : 													{
														"maxclass" : "newobj",
														"text" : "== 0",
														"numinlets" : 1,
														"patching_rect" : [ 404.0, 166.0, 33.0, 22.0 ],
														"numoutlets" : 1,
														"outlettype" : [ "" ],
														"id" : "obj-8"
													}

												}
, 												{
													"box" : 													{
														"maxclass" : "newobj",
														"text" : "out 2",
														"numinlets" : 1,
														"patching_rect" : [ 303.5, 557.0, 35.0, 22.0 ],
														"numoutlets" : 0,
														"id" : "obj-7"
													}

												}
, 												{
													"box" : 													{
														"maxclass" : "newobj",
														"text" : "in 3 @comment \"Bypass, (signal/float) 0 = bypass, 1 = on\" @default 0",
														"linecount" : 3,
														"numinlets" : 0,
														"patching_rect" : [ 406.0, 14.0, 184.0, 49.0 ],
														"numoutlets" : 1,
														"outlettype" : [ "" ],
														"id" : "obj-5"
													}

												}
, 												{
													"box" : 													{
														"maxclass" : "newobj",
														"text" : "50",
														"numinlets" : 0,
														"patching_rect" : [ 461.0, 159.0, 22.0, 22.0 ],
														"numoutlets" : 1,
														"outlettype" : [ "" ],
														"id" : "obj-22"
													}

												}
, 												{
													"box" : 													{
														"maxclass" : "newobj",
														"text" : "mstosamps",
														"numinlets" : 1,
														"patching_rect" : [ 467.0, 202.0, 70.0, 22.0 ],
														"numoutlets" : 1,
														"outlettype" : [ "" ],
														"id" : "obj-21"
													}

												}
, 												{
													"box" : 													{
														"maxclass" : "newobj",
														"text" : "slide",
														"numinlets" : 3,
														"patching_rect" : [ 404.0, 280.0, 40.0, 22.0 ],
														"numoutlets" : 1,
														"outlettype" : [ "" ],
														"id" : "obj-18"
													}

												}
, 												{
													"box" : 													{
														"maxclass" : "newobj",
														"text" : "in 1",
														"numinlets" : 0,
														"patching_rect" : [ 50.0, 14.0, 28.0, 22.0 ],
														"numoutlets" : 1,
														"outlettype" : [ "" ],
														"id" : "obj-1"
													}

												}
, 												{
													"box" : 													{
														"maxclass" : "newobj",
														"text" : "in 2",
														"numinlets" : 0,
														"patching_rect" : [ 305.0, 14.0, 28.0, 22.0 ],
														"numoutlets" : 1,
														"outlettype" : [ "" ],
														"id" : "obj-2"
													}

												}
, 												{
													"box" : 													{
														"maxclass" : "newobj",
														"text" : "out 1",
														"numinlets" : 1,
														"patching_rect" : [ 48.5, 551.0, 35.0, 22.0 ],
														"numoutlets" : 0,
														"id" : "obj-4"
													}

												}
 ],
											"lines" : [ 												{
													"patchline" : 													{
														"source" : [ "obj-9", 0 ],
														"destination" : [ "obj-4", 0 ]
													}

												}
, 												{
													"patchline" : 													{
														"source" : [ "obj-8", 0 ],
														"destination" : [ "obj-18", 0 ]
													}

												}
, 												{
													"patchline" : 													{
														"source" : [ "obj-5", 0 ],
														"destination" : [ "obj-8", 0 ],
														"order" : 1
													}

												}
, 												{
													"patchline" : 													{
														"source" : [ "obj-5", 0 ],
														"destination" : [ "obj-11", 0 ],
														"order" : 0
													}

												}
, 												{
													"patchline" : 													{
														"source" : [ "obj-21", 0 ],
														"destination" : [ "obj-18", 1 ],
														"order" : 1
													}

												}
, 												{
													"patchline" : 													{
														"source" : [ "obj-21", 0 ],
														"destination" : [ "obj-18", 2 ],
														"order" : 0
													}

												}
, 												{
													"patchline" : 													{
														"source" : [ "obj-2", 0 ],
														"destination" : [ "obj-17", 0 ],
														"midpoints" : [ 314.5, 401.0, 781.0, 401.0 ],
														"order" : 0
													}

												}
, 												{
													"patchline" : 													{
														"source" : [ "obj-2", 0 ],
														"destination" : [ "obj-10", 0 ],
														"order" : 1
													}

												}
, 												{
													"patchline" : 													{
														"source" : [ "obj-19", 0 ],
														"destination" : [ "obj-16", 0 ]
													}

												}
, 												{
													"patchline" : 													{
														"source" : [ "obj-18", 0 ],
														"destination" : [ "obj-9", 1 ],
														"order" : 1
													}

												}
, 												{
													"patchline" : 													{
														"source" : [ "obj-18", 0 ],
														"destination" : [ "obj-10", 1 ],
														"order" : 0
													}

												}
, 												{
													"patchline" : 													{
														"source" : [ "obj-17", 0 ],
														"destination" : [ "obj-15", 0 ]
													}

												}
, 												{
													"patchline" : 													{
														"source" : [ "obj-14", 0 ],
														"destination" : [ "obj-19", 1 ],
														"order" : 1
													}

												}
, 												{
													"patchline" : 													{
														"source" : [ "obj-14", 0 ],
														"destination" : [ "obj-17", 1 ],
														"order" : 0
													}

												}
, 												{
													"patchline" : 													{
														"source" : [ "obj-13", 0 ],
														"destination" : [ "obj-14", 1 ],
														"order" : 1
													}

												}
, 												{
													"patchline" : 													{
														"source" : [ "obj-13", 0 ],
														"destination" : [ "obj-14", 2 ],
														"order" : 0
													}

												}
, 												{
													"patchline" : 													{
														"source" : [ "obj-11", 0 ],
														"destination" : [ "obj-14", 0 ]
													}

												}
, 												{
													"patchline" : 													{
														"source" : [ "obj-10", 0 ],
														"destination" : [ "obj-7", 0 ]
													}

												}
, 												{
													"patchline" : 													{
														"source" : [ "obj-1", 0 ],
														"destination" : [ "obj-9", 0 ],
														"order" : 1
													}

												}
, 												{
													"patchline" : 													{
														"source" : [ "obj-1", 0 ],
														"destination" : [ "obj-19", 0 ],
														"midpoints" : [ 59.5, 429.0, 526.0, 429.0 ],
														"order" : 0
													}

												}
, 												{
													"patchline" : 													{
														"source" : [ "obj-22", 0 ],
														"destination" : [ "obj-21", 0 ]
													}

												}
, 												{
													"patchline" : 													{
														"source" : [ "obj-12", 0 ],
														"destination" : [ "obj-13", 0 ]
													}

												}
 ]
										}

									}
,
									"id" : "obj-11",
									"maxclass" : "newobj",
									"numinlets" : 3,
									"numoutlets" : 4,
									"outlettype" : [ "signal", "signal", "signal", "signal" ],
									"patching_rect" : [ 42.0, 150.0, 111.0, 23.0 ],
									"rnbo_classname" : "gen~",
									"rnbo_extra_attributes" : 									{
										"exposeparams" : 0
									}
,
									"rnbo_serial" : 2,
									"rnbo_uniqueid" : "bypass",
									"rnboinfo" : 									{
										"needsInstanceInfo" : 1,
										"argnames" : 										{
											"in1" : 											{
												"attrOrProp" : 1,
												"digest" : "in1",
												"isalias" : 0,
												"aliases" : [  ],
												"attachable" : 0,
												"isparam" : 0,
												"deprecated" : 0,
												"inlet" : 1,
												"type" : "number"
											}
,
											"reset" : 											{
												"attrOrProp" : 1,
												"digest" : "Reset all param and history objects to initial values",
												"isalias" : 0,
												"aliases" : [  ],
												"attachable" : 1,
												"isparam" : 0,
												"deprecated" : 0,
												"type" : "bang"
											}
,
											"expr" : 											{
												"attrOrProp" : 2,
												"digest" : "a gen expression",
												"isalias" : 0,
												"aliases" : [  ],
												"settable" : 1,
												"attachable" : 0,
												"isparam" : 0,
												"deprecated" : 0,
												"type" : "symbol",
												"doNotShowInMaxInspector" : 1
											}
,
											"file" : 											{
												"attrOrProp" : 2,
												"digest" : "gendsp file to load",
												"isalias" : 0,
												"aliases" : [  ],
												"settable" : 1,
												"attachable" : 0,
												"isparam" : 0,
												"deprecated" : 0,
												"type" : "symbol",
												"doNotShowInMaxInspector" : 1
											}
,
											"title" : 											{
												"attrOrProp" : 2,
												"digest" : "a title",
												"defaultarg" : 1,
												"isalias" : 0,
												"aliases" : [ "t" ],
												"settable" : 1,
												"attachable" : 0,
												"isparam" : 0,
												"deprecated" : 0,
												"type" : "symbol",
												"doNotShowInMaxInspector" : 1
											}
,
											"t" : 											{
												"attrOrProp" : 2,
												"digest" : "a title",
												"defaultarg" : 1,
												"isalias" : 1,
												"aliasOf" : "title",
												"aliases" : [  ],
												"settable" : 1,
												"attachable" : 0,
												"isparam" : 0,
												"deprecated" : 0,
												"type" : "symbol"
											}
,
											"exposeparams" : 											{
												"attrOrProp" : 2,
												"digest" : "Expose gen params as RNBO params.",
												"isalias" : 0,
												"aliases" : [  ],
												"settable" : 1,
												"attachable" : 0,
												"isparam" : 0,
												"deprecated" : 0,
												"type" : "bool",
												"defaultValue" : "false"
											}

										}
,
										"inputs" : [ 											{
												"name" : "in1",
												"type" : "auto",
												"digest" : "in1",
												"hot" : 1,
												"docked" : 0
											}
, 											{
												"name" : "in2",
												"type" : "auto"
											}
, 											{
												"name" : "in3",
												"type" : "auto"
											}
 ],
										"outputs" : [ 											{
												"name" : "out1",
												"type" : "signal"
											}
, 											{
												"name" : "out2",
												"type" : "signal"
											}
, 											{
												"name" : "out3",
												"type" : "signal"
											}
, 											{
												"name" : "out4",
												"type" : "signal"
											}
 ],
										"helpname" : "gen~",
										"aliasOf" : "gen~",
										"classname" : "gen~",
										"operator" : 0,
										"versionId" : 1405647718,
										"changesPatcherIO" : 0
									}
,
									"text" : "gen~ @title bypass",
									"varname" : "bypass"
								}

							}
, 							{
								"box" : 								{
									"id" : "obj-2",
									"maxclass" : "newobj",
									"numinlets" : 0,
									"numoutlets" : 1,
									"outlettype" : [ "signal" ],
									"patching_rect" : [ 82.75, 51.0, 35.0, 23.0 ],
									"rnbo_classname" : "in~",
									"rnbo_extra_attributes" : 									{
										"meta" : "",
										"comment" : ""
									}
,
									"rnbo_serial" : 1,
									"rnbo_uniqueid" : "in~_obj-2",
									"rnboinfo" : 									{
										"needsInstanceInfo" : 1,
										"argnames" : 										{
											"out1" : 											{
												"attrOrProp" : 1,
												"digest" : "signal from inlet with index 2",
												"isalias" : 0,
												"aliases" : [  ],
												"settable" : 0,
												"attachable" : 0,
												"isparam" : 0,
												"deprecated" : 0,
												"outlet" : 1,
												"type" : "signal"
											}
,
											"index" : 											{
												"attrOrProp" : 2,
												"digest" : "inlet number",
												"defaultarg" : 1,
												"isalias" : 0,
												"aliases" : [  ],
												"settable" : 1,
												"attachable" : 0,
												"isparam" : 0,
												"deprecated" : 0,
												"type" : "number",
												"mandatory" : 1
											}
,
											"comment" : 											{
												"attrOrProp" : 2,
												"digest" : "mouse over comment",
												"isalias" : 0,
												"aliases" : [  ],
												"settable" : 1,
												"attachable" : 0,
												"isparam" : 0,
												"deprecated" : 0,
												"type" : "symbol"
											}
,
											"meta" : 											{
												"attrOrProp" : 2,
												"digest" : "A JSON formatted string containing metadata for use by the exported code",
												"isalias" : 0,
												"aliases" : [  ],
												"settable" : 1,
												"attachable" : 0,
												"isparam" : 0,
												"deprecated" : 0,
												"type" : "symbol",
												"defaultValue" : "",
												"label" : "Metadata",
												"displayorder" : 3
											}

										}
,
										"inputs" : [  ],
										"outputs" : [ 											{
												"name" : "out1",
												"type" : "signal",
												"digest" : "signal from inlet with index 2",
												"displayName" : "",
												"docked" : 0
											}
 ],
										"helpname" : "in~",
										"aliasOf" : "in~",
										"classname" : "in~",
										"operator" : 0,
										"versionId" : -176007711,
										"changesPatcherIO" : 1
									}
,
									"text" : "in~ 2"
								}

							}
, 							{
								"box" : 								{
									"id" : "obj-1",
									"maxclass" : "newobj",
									"numinlets" : 0,
									"numoutlets" : 1,
									"outlettype" : [ "signal" ],
									"patching_rect" : [ 42.0, 51.0, 35.0, 23.0 ],
									"rnbo_classname" : "in~",
									"rnbo_extra_attributes" : 									{
										"meta" : "",
										"comment" : ""
									}
,
									"rnbo_serial" : 2,
									"rnbo_uniqueid" : "in~_obj-1",
									"rnboinfo" : 									{
										"needsInstanceInfo" : 1,
										"argnames" : 										{
											"out1" : 											{
												"attrOrProp" : 1,
												"digest" : "signal from inlet with index 1",
												"isalias" : 0,
												"aliases" : [  ],
												"settable" : 0,
												"attachable" : 0,
												"isparam" : 0,
												"deprecated" : 0,
												"outlet" : 1,
												"type" : "signal"
											}
,
											"index" : 											{
												"attrOrProp" : 2,
												"digest" : "inlet number",
												"defaultarg" : 1,
												"isalias" : 0,
												"aliases" : [  ],
												"settable" : 1,
												"attachable" : 0,
												"isparam" : 0,
												"deprecated" : 0,
												"type" : "number",
												"mandatory" : 1
											}
,
											"comment" : 											{
												"attrOrProp" : 2,
												"digest" : "mouse over comment",
												"isalias" : 0,
												"aliases" : [  ],
												"settable" : 1,
												"attachable" : 0,
												"isparam" : 0,
												"deprecated" : 0,
												"type" : "symbol"
											}
,
											"meta" : 											{
												"attrOrProp" : 2,
												"digest" : "A JSON formatted string containing metadata for use by the exported code",
												"isalias" : 0,
												"aliases" : [  ],
												"settable" : 1,
												"attachable" : 0,
												"isparam" : 0,
												"deprecated" : 0,
												"type" : "symbol",
												"defaultValue" : "",
												"label" : "Metadata",
												"displayorder" : 3
											}

										}
,
										"inputs" : [  ],
										"outputs" : [ 											{
												"name" : "out1",
												"type" : "signal",
												"digest" : "signal from inlet with index 1",
												"displayName" : "",
												"docked" : 0
											}
 ],
										"helpname" : "in~",
										"aliasOf" : "in~",
										"classname" : "in~",
										"operator" : 0,
										"versionId" : -176007711,
										"changesPatcherIO" : 1
									}
,
									"text" : "in~ 1"
								}

							}
 ],
						"lines" : [ 							{
								"patchline" : 								{
									"destination" : [ "obj-11", 0 ],
									"source" : [ "obj-1", 0 ]
								}

							}
, 							{
								"patchline" : 								{
									"destination" : [ "obj-3", 2 ],
									"source" : [ "obj-10", 0 ]
								}

							}
, 							{
								"patchline" : 								{
									"destination" : [ "obj-12", 0 ],
									"source" : [ "obj-11", 0 ]
								}

							}
, 							{
								"patchline" : 								{
									"destination" : [ "obj-13", 0 ],
									"source" : [ "obj-11", 1 ]
								}

							}
, 							{
								"patchline" : 								{
									"destination" : [ "obj-3", 1 ],
									"source" : [ "obj-11", 3 ]
								}

							}
, 							{
								"patchline" : 								{
									"destination" : [ "obj-3", 0 ],
									"source" : [ "obj-11", 2 ]
								}

							}
, 							{
								"patchline" : 								{
									"destination" : [ "obj-4", 0 ],
									"source" : [ "obj-12", 0 ]
								}

							}
, 							{
								"patchline" : 								{
									"destination" : [ "obj-5", 0 ],
									"source" : [ "obj-13", 0 ]
								}

							}
, 							{
								"patchline" : 								{
									"destination" : [ "obj-11", 1 ],
									"source" : [ "obj-2", 0 ]
								}

							}
, 							{
								"patchline" : 								{
									"destination" : [ "obj-12", 1 ],
									"source" : [ "obj-3", 0 ]
								}

							}
, 							{
								"patchline" : 								{
									"destination" : [ "obj-13", 1 ],
									"source" : [ "obj-3", 1 ]
								}

							}
, 							{
								"patchline" : 								{
									"destination" : [ "obj-11", 2 ],
									"source" : [ "obj-7", 0 ]
								}

							}
 ],
						"default_bgcolor" : [ 0.031372549019608, 0.125490196078431, 0.211764705882353, 1.0 ],
						"color" : [ 0.929412, 0.929412, 0.352941, 1.0 ],
						"elementcolor" : [ 0.357540726661682, 0.515565991401672, 0.861786782741547, 1.0 ],
						"accentcolor" : [ 0.343034118413925, 0.506230533123016, 0.86220508813858, 1.0 ],
						"stripecolor" : [ 0.258338063955307, 0.352425158023834, 0.511919498443604, 1.0 ],
						"bgfillcolor_type" : "color",
						"bgfillcolor_color" : [ 0.031372549019608, 0.125490196078431, 0.211764705882353, 1.0 ],
						"bgfillcolor_color1" : [ 0.031372549019608, 0.125490196078431, 0.211764705882353, 1.0 ],
						"bgfillcolor_color2" : [ 0.263682, 0.004541, 0.038797, 1.0 ],
						"bgfillcolor_angle" : 270.0,
						"bgfillcolor_proportion" : 0.39,
						"bgfillcolor_autogradient" : 0.0,
						"export_config" : 						{
							"max-export" : 							{
								"max-external-export" : 								{
									"author" : "Brian Riordan",
									"description" : "A basic object that sums a stereo signal into mono with 3 different mix-down options",
									"mc" : 1,
									"external_name" : "br.utility.mono.1.0~"
								}

							}

						}

					}
,
					"patching_rect" : [ 42.0, 284.0, 126.0, 22.0 ],
					"rnboattrcache" : 					{

					}
,
					"rnboversion" : "1.2.3",
					"saved_attribute_attributes" : 					{
						"valueof" : 						{
							"parameter_invisible" : 1,
							"parameter_longname" : "rnbo~",
							"parameter_shortname" : "rnbo~",
							"parameter_type" : 3
						}

					}
,
					"saved_object_attributes" : 					{
						"optimization" : "O1",
						"parameter_enable" : 1,
						"uuid" : "dc83eaab-95ed-11ee-aaab-6c4008bee79c"
					}
,
					"snapshot" : 					{
						"filetype" : "C74Snapshot",
						"version" : 2,
						"minorversion" : 0,
						"name" : "snapshotlist",
						"origin" : "rnbo~",
						"type" : "list",
						"subtype" : "Undefined",
						"embed" : 1,
						"snapshot" : 						{
							"__presetid" : "dc83eaab-95ed-11ee-aaab-6c4008bee79c"
						}
,
						"snapshotlist" : 						{
							"current_snapshot" : 0,
							"entries" : [ 								{
									"filetype" : "C74Snapshot",
									"version" : 2,
									"minorversion" : 0,
									"name" : "untitled",
									"origin" : "dc83eaab-95ed-11ee-aaab-6c4008bee79c",
									"type" : "rnbo",
									"subtype" : "",
									"embed" : 0,
									"snapshot" : 									{
										"__presetid" : "dc83eaab-95ed-11ee-aaab-6c4008bee79c"
									}
,
									"fileref" : 									{
										"name" : "untitled",
										"filename" : "untitled_20231208.maxsnap",
										"filepath" : "~/Documents/Max 8/Snapshots",
										"filepos" : -1,
										"snapshotfileid" : "3e23e1486b7c144e351fc020d362979b"
									}

								}
 ]
						}

					}
,
					"text" : "rnbo~",
					"varname" : "rnbo~"
				}

			}
 ],
		"lines" : [ 			{
				"patchline" : 				{
					"destination" : [ "obj-2", 1 ],
					"source" : [ "obj-1", 1 ]
				}

			}
, 			{
				"patchline" : 				{
					"destination" : [ "obj-2", 0 ],
					"source" : [ "obj-1", 0 ]
				}

			}
, 			{
				"patchline" : 				{
					"destination" : [ "obj-1", 2 ],
					"source" : [ "obj-12", 0 ]
				}

			}
, 			{
				"patchline" : 				{
					"destination" : [ "obj-3", 1 ],
					"source" : [ "obj-2", 1 ]
				}

			}
, 			{
				"patchline" : 				{
					"destination" : [ "obj-3", 0 ],
					"source" : [ "obj-2", 0 ]
				}

			}
, 			{
				"patchline" : 				{
					"destination" : [ "obj-1", 3 ],
					"source" : [ "obj-4", 0 ]
				}

			}
, 			{
				"patchline" : 				{
					"destination" : [ "obj-1", 1 ],
					"source" : [ "obj-5", 1 ]
				}

			}
, 			{
				"patchline" : 				{
					"destination" : [ "obj-1", 0 ],
					"source" : [ "obj-5", 0 ]
				}

			}
, 			{
				"patchline" : 				{
					"destination" : [ "obj-4", 0 ],
					"source" : [ "obj-6", 0 ]
				}

			}
, 			{
				"patchline" : 				{
					"destination" : [ "obj-12", 0 ],
					"source" : [ "obj-7", 0 ]
				}

			}
 ],
		"parameters" : 		{
			"obj-1" : [ "rnbo~", "rnbo~", 0 ],
			"obj-12" : [ "live.text", "live.text", 0 ],
			"obj-2" : [ "live.gain~", "live.gain~", 0 ],
			"obj-4" : [ "live.tab", "live.tab", 0 ],
			"parameterbanks" : 			{
				"0" : 				{
					"index" : 0,
					"name" : "",
					"parameters" : [ "-", "-", "-", "-", "-", "-", "-", "-" ]
				}

			}
,
			"inherited_shortname" : 1
		}
,
		"dependency_cache" : [ 			{
				"name" : "untitled_20231208.maxsnap",
				"bootpath" : "~/Documents/Max 8/Snapshots",
				"patcherrelativepath" : "../../../../Max 8/Snapshots",
				"type" : "mx@s",
				"implicit" : 1
			}
, 			{
				"name" : "vs_piano_loop.wav",
				"bootpath" : "~/Documents/Max 8/Externals/Virtual Sound Macros/media/sound files",
				"patcherrelativepath" : "../../../../Max 8/Externals/Virtual Sound Macros/media/sound files",
				"type" : "WAVE",
				"implicit" : 1
			}
 ],
		"autosave" : 0
	}

}
